<svg id="Layer_1" data-name="Layer 1" xmlns="http://www.w3.org/2000/svg" xmlns:xlink="http://www.w3.org/1999/xlink" viewBox="0 0 369.656 309.998"><defs><style>.cls-1{fill:none;}.cls-2{clip-path:url(#clip-path);}.cls-3{clip-path:url(#clip-path-2);}.cls-4{fill:#ececec;}.cls-5{clip-path:url(#clip-path-3);}.cls-6{fill:#dcdcdb;}.cls-7{clip-path:url(#clip-path-5);}.cls-8{clip-path:url(#clip-path-7);}.cls-9{clip-path:url(#clip-path-9);}.cls-10{fill:#6466ae;}.cls-11{clip-path:url(#clip-path-11);}.cls-12{fill:#dbf1f7;}.cls-13{clip-path:url(#clip-path-13);}.cls-14{clip-path:url(#clip-path-15);}.cls-15{clip-path:url(#clip-path-17);}.cls-16{clip-path:url(#clip-path-19);}.cls-17{clip-path:url(#clip-path-21);}.cls-18{clip-path:url(#clip-path-23);}.cls-19{clip-path:url(#clip-path-25);}.cls-20{clip-path:url(#clip-path-27);}.cls-21{clip-path:url(#clip-path-29);}.cls-22{clip-path:url(#clip-path-31);}.cls-23{clip-path:url(#clip-path-33);}.cls-24{fill:#a0616a;}.cls-25{clip-path:url(#clip-path-35);}.cls-26{fill:#533694;}.cls-27{clip-path:url(#clip-path-37);}.cls-28{clip-path:url(#clip-path-39);}.cls-29{clip-path:url(#clip-path-41);}.cls-30{fill:#01c0e1;}.cls-31{clip-path:url(#clip-path-43);}.cls-32{opacity:0.15;}.cls-33{clip-path:url(#clip-path-45);}.cls-34{clip-path:url(#clip-path-47);}.cls-35{clip-path:url(#clip-path-49);}.cls-36{clip-path:url(#clip-path-51);}.cls-37{fill:#454053;}.cls-38{clip-path:url(#clip-path-53);}.cls-39{fill:#f79363;}.cls-40{clip-path:url(#clip-path-55);}.cls-41{fill:#fff;}.cls-42{clip-path:url(#clip-path-57);}.cls-43{clip-path:url(#clip-path-59);}.cls-44{clip-path:url(#clip-path-61);}.cls-45{fill:#acacac;}.cls-46{clip-path:url(#clip-path-63);}.cls-47{clip-path:url(#clip-path-65);}.cls-48{clip-path:url(#clip-path-67);}.cls-49{clip-path:url(#clip-path-69);}</style><clipPath id="clip-path" transform="translate(-18.201 2.586)"><path class="cls-1" d="M362.964,98.382c0,12.486-2.958,22.765-8.088,31.569a63.033,63.033,0,0,1-5.748,8.255c-18.859,23.066-53.922,35.691-85.612,56.141-93.543,60.362-103.676-36.363-99.451-95.965a106.355,106.355,0,0,1,25.949-62.947,98.85,98.85,0,0,1,10.1-9.93,96.744,96.744,0,0,1,63.4-23.091c42.352,0,78.519,25.544,92.858,61.541A92.964,92.964,0,0,1,362.964,98.382Z"/></clipPath><clipPath id="clip-path-2" transform="translate(-18.201 2.586)"><rect class="cls-1" x="-1956.799" y="-4717.586" width="3408" height="6948"/></clipPath><clipPath id="clip-path-3" transform="translate(-18.201 2.586)"><path class="cls-1" d="M284.7,24.042l-94.69,11.393a98.85,98.85,0,0,1,10.1-9.93Z"/></clipPath><clipPath id="clip-path-5" transform="translate(-18.201 2.586)"><path class="cls-1" d="M354.876,129.951a63.033,63.033,0,0,1-5.748,8.255l-81.11-9.756Z"/></clipPath><clipPath id="clip-path-7" transform="translate(-18.201 2.586)"><path class="cls-1" d="M359.683,73.853,222.219,56.024l134.155,7.931A92.366,92.366,0,0,1,359.683,73.853Z"/></clipPath><clipPath id="clip-path-9" transform="translate(-18.201 2.586)"><path class="cls-1" d="M173.39,27.977c0,.245-.007.486-.028.724a9.94,9.94,0,1,1-18.7-5.364,9,9,0,0,1,.731-1.175,9.937,9.937,0,0,1,17.965,5.005C173.379,27.434,173.39,27.7,173.39,27.977Z"/></clipPath><clipPath id="clip-path-11" transform="translate(-18.201 2.586)"><path class="cls-1" d="M173.39,27.977c0,.245-.007.486-.028.724l-14.883-1.789,14.876.255C173.379,27.434,173.39,27.7,173.39,27.977Z"/></clipPath><clipPath id="clip-path-13" transform="translate(-18.201 2.586)"><path class="cls-1" d="M169.84,32.986l-13.768,1.658a9.9,9.9,0,0,1-1.051-1.4Z"/></clipPath><clipPath id="clip-path-15" transform="translate(-18.201 2.586)"><path class="cls-1" d="M165.934,21.98l-11.275,1.357a9,9,0,0,1,.731-1.175Z"/></clipPath><clipPath id="clip-path-17" transform="translate(-18.201 2.586)"><path class="cls-1" d="M309.627,206.956c-.115.217-.235.427-.365.627a9.94,9.94,0,1,1-14.006-13.506,9.094,9.094,0,0,1,1.2-.695,9.937,9.937,0,0,1,13.522,12.843C309.872,206.472,309.755,206.715,309.627,206.956Z"/></clipPath><clipPath id="clip-path-19" transform="translate(-18.201 2.586)"><path class="cls-1" d="M309.627,206.956c-.115.217-.235.427-.365.627l-12.307-8.557,13.02,7.2C309.872,206.472,309.755,206.715,309.627,206.956Z"/></clipPath><clipPath id="clip-path-21" transform="translate(-18.201 2.586)"><path class="cls-1" d="M304.142,209.717,291.2,204.728a9.862,9.862,0,0,1-.271-1.732Z"/></clipPath><clipPath id="clip-path-23" transform="translate(-18.201 2.586)"><path class="cls-1" d="M305.852,198.165l-10.6-4.088a9.094,9.094,0,0,1,1.2-.695Z"/></clipPath><clipPath id="clip-path-25" transform="translate(-18.201 2.586)"><path class="cls-1" d="M380.033,35.592c.171.176.335.354.486.539a9.94,9.94,0,1,1-17.135,9.218,9.086,9.086,0,0,1-.3-1.352,9.937,9.937,0,0,1,16.356-8.959C379.646,35.211,379.843,35.4,380.033,35.592Z"/></clipPath><clipPath id="clip-path-27" transform="translate(-18.201 2.586)"><path class="cls-1" d="M380.033,35.592c.171.176.335.354.486.539l-11.9,9.11,10.828-10.2C379.646,35.211,379.843,35.4,380.033,35.592Z"/></clipPath><clipPath id="clip-path-29" transform="translate(-18.201 2.586)"><path class="cls-1" d="M380.989,41.658l-8.7,10.8a9.928,9.928,0,0,1-1.731-.27Z"/></clipPath><clipPath id="clip-path-31" transform="translate(-18.201 2.586)"><path class="cls-1" d="M370.509,36.505l-7.125,8.844a9.086,9.086,0,0,1-.3-1.352Z"/></clipPath><clipPath id="clip-path-33" transform="translate(-18.201 2.586)"><path class="cls-1" d="M193.537,218.788s21.815.909,21.815,6.363-24.542,0-24.542,0Z"/></clipPath><clipPath id="clip-path-35" transform="translate(-18.201 2.586)"><path class="cls-1" d="M160.814,302.412l-40.9-2.727-1.818-21.815L109,296.958,69.01,291.505c.909-34.541,15.452-68.172,16.361-72.717s3.081-23.324,3.081-23.324c3.972-8.426,24.787-9.217,41.1-8.453,6.763.309,12.762.891,16.462,1.309,2.445.272,3.89.472,3.89.472,6.517,6.718,10.717,15.871,13.3,26.1C172.513,251.729,160.814,302.412,160.814,302.412Z"/></clipPath><clipPath id="clip-path-37" transform="translate(-18.201 2.586)"><circle class="cls-1" cx="115.367" cy="68.81" r="22.724" transform="translate(-3.184 5.643) rotate(-2.764)"/></clipPath><clipPath id="clip-path-39" transform="translate(-18.201 2.586)"><path class="cls-1" d="M99.914,74.264s-6.362,28.177-16.361,36.358,39.085,0,39.085,0-10.907-18.179-2.727-26.36S99.914,74.264,99.914,74.264Z"/></clipPath><clipPath id="clip-path-41" transform="translate(-18.201 2.586)"><path class="cls-1" d="M146.271,190.61l-15.08,1.673-42.184,4.69s-.2-.536-.555-1.509c-3.063-8.353-17.815-49-19.442-61.209-1.818-13.635,17.27-30,17.27-30s18.179-3.636,23.633-3.636,27.268,8.181,27.268,8.181l8.136,73.18.7,6.336Z"/></clipPath><clipPath id="clip-path-43" transform="translate(-18.201 2.586)"><path class="cls-1" d="M163.205,214.888l-30.568-17.915s-.537-1.745-1.446-4.69c-.454-1.473-1.008-3.254-1.636-5.272-3.526-11.326-9.444-30.014-14.188-43.667-7.272-20.906,28.177,37.268,28.177,37.268l1.773,1.372.7,6.336c2.445.272,3.89.472,3.89.472C156.424,195.51,160.624,204.663,163.205,214.888Z"/></clipPath><clipPath id="clip-path-45" transform="translate(-18.201 2.586)"><path class="cls-1" d="M122.638,110.622s-9.089,11.816-1.818,32.722,17.27,53.629,17.27,53.629l52.72,30.9,7.272-9.09L149,180.612S147.18,111.531,138.09,108.8A18.625,18.625,0,0,0,122.638,110.622Z"/></clipPath><clipPath id="clip-path-47" transform="translate(-18.201 2.586)"><path class="cls-1" d="M77.645,190.156s12.725,26.36,18.179,23.633-13.634-30-13.634-30Z"/></clipPath><clipPath id="clip-path-49" transform="translate(-18.201 2.586)"><path class="cls-1" d="M76.281,117.894,28.107,157.888S9.927,170.613,43.559,179.7s36.358,14.543,36.358,14.543,3.636-11.816,8.181-10L49.013,165.159l31.813-19.088Z"/></clipPath><clipPath id="clip-path-51" transform="translate(-18.201 2.586)"><path class="cls-1" d="M56.919,87.461a128.165,128.165,0,0,0,12.868-6.824c-.334-9.9.886-18.9,4.456-23.661,2-4.551,6.213-9.106,9.508-12.694,8.094-8.81,25.992-13.728,29.166-9.326,24.009.474,26.537,19.294,26.537,19.294-.125,7.871-8.306,8.12-15.473,7.833.642,5.374-1.068,10.958-6.021,13.434-9.471,4.736-12.312,10.892-7.577,15.154s13.26,15.627,1.9,18.468-12.786,8.524-9.471,10.891-7.577-4.262-7.577-4.262-1.894,11.365-11.838,8.524a5.982,5.982,0,0,1-2.658-1.883c-2.686,2.951-5.082,4.7-6.887,4.706-10.342.054-9.1-11.4-9.1-11.4s-12.276,3.447-8.445,2.061,3.994-7.241-6.184-13.042S51.21,90.288,56.919,87.461Z"/></clipPath><clipPath id="clip-path-53" transform="translate(-18.201 2.586)"><path class="cls-1" d="M183.81,117.153l-.165-.022.4,1.529a40.118,40.118,0,0,0,1.651,6.276l11.8,44.843a7.6,7.6,0,0,0,6.188,5.577l24.057,3.722a7.6,7.6,0,0,0,7.863-3.924l22.861-42.7a40.133,40.133,0,0,0,1.956-3.653l.776-1.45-.121-.016a40.419,40.419,0,1,0-77.265-10.181Z"/></clipPath><clipPath id="clip-path-55" transform="translate(-18.201 2.586)"><path class="cls-1" d="M229.216,182.008a8.253,8.253,0,0,1-1.265-.1l-25.146-3.89a8.3,8.3,0,0,1-6.758-6.091l-12.33-46.873a42.216,42.216,0,0,1-1.732-6.588l-.312-2.05a42.613,42.613,0,0,1,48.779-47.526l-.109.7a41.918,41.918,0,0,0-47.9,47.188l.24,1.534a41.972,41.972,0,0,0,1.717,6.532l12.339,46.9a7.587,7.587,0,0,0,6.179,5.569l25.146,3.891a7.6,7.6,0,0,0,7.852-3.919l.626.335A8.316,8.316,0,0,1,229.216,182.008Z"/></clipPath><clipPath id="clip-path-57" transform="translate(-18.201 2.586)"><rect class="cls-1" x="206.131" y="147.933" width="44.49" height="0.918" transform="translate(10.496 311.805) rotate(-69.885)"/></clipPath><clipPath id="clip-path-59" transform="translate(-18.201 2.586)"><rect class="cls-1" x="210.671" y="123.479" width="0.918" height="44.49" transform="translate(-6.191 9.405) rotate(-2.515)"/></clipPath><clipPath id="clip-path-61" transform="translate(-18.201 2.586)"><path class="cls-1" d="M227.091,203.258l-32.222-4.985a.918.918,0,0,1,.281-1.815l32.221,4.985a.918.918,0,1,1-.28,1.815Z"/></clipPath><clipPath id="clip-path-63" transform="translate(-18.201 2.586)"><path class="cls-1" d="M227.917,196.416,195.7,191.431a.918.918,0,1,1,.281-1.815L228.2,194.6a.919.919,0,1,1-.281,1.816Z"/></clipPath><clipPath id="clip-path-65" transform="translate(-18.201 2.586)"><path class="cls-1" d="M228.743,189.573l-32.222-4.985a.918.918,0,0,1,.281-1.815l32.222,4.985a.918.918,0,0,1-.281,1.815Z"/></clipPath><clipPath id="clip-path-67" transform="translate(-18.201 2.586)"><path class="cls-1" d="M209.978,207.24c6.392.989,12.124-1.772,12.8-6.166l-23.145-3.581C198.957,201.887,203.587,206.251,209.978,207.24Z"/></clipPath><clipPath id="clip-path-69" transform="translate(-18.201 2.586)"><path class="cls-1" d="M221.561,118.544a5.65,5.65,0,0,1-3.136-2.028c-.205-.238-.4-.486-.6-.734a7.178,7.178,0,0,0-2.367-2.2c-2.108-.984-4.591.39-6.742,1.864l-.519-.758c2.364-1.62,5.121-3.118,7.649-1.939a7.96,7.96,0,0,1,2.7,2.46c.193.241.386.482.584.713.649.757,1.942,1.984,3.327,1.7a4.469,4.469,0,0,0,1.6-.845,8.645,8.645,0,0,1,1.129-.712,4.5,4.5,0,0,1,4.937.7,8.788,8.788,0,0,1,.67.708,2.286,2.286,0,0,0,3.7.435,4.751,4.751,0,0,1,2.78-.833l.1.014c1.809.28,2.643,2.28,3.115,3.774l-.876.276c-.641-2.029-1.422-3.039-2.446-3.151a4.033,4.033,0,0,0-2.236.728,3.134,3.134,0,0,1-4.822-.637,8.016,8.016,0,0,0-.6-.637,3.606,3.606,0,0,0-3.909-.552,7.817,7.817,0,0,0-1.007.639,5.216,5.216,0,0,1-1.942.995A3.023,3.023,0,0,1,221.561,118.544Z"/></clipPath></defs><g class="cls-2"><g class="cls-3"><rect class="cls-4" x="140.082" width="209.681" height="221.033"/></g></g><g class="cls-5"><g class="cls-3"><rect class="cls-6" x="166.814" y="21.628" width="104.69" height="21.393"/></g></g><g class="cls-7"><g class="cls-3"><rect class="cls-6" x="244.817" y="126.036" width="96.858" height="19.756"/></g></g><g class="cls-8"><g class="cls-3"><rect class="cls-6" x="199.018" y="53.609" width="147.464" height="27.829"/></g></g><g class="cls-9"><g class="cls-3"><rect class="cls-10" x="130.308" y="15.621" width="29.882" height="29.883"/></g></g><g class="cls-11"><g class="cls-3"><rect class="cls-12" x="135.278" y="24.498" width="24.911" height="11.789"/></g></g><g class="cls-13"><g class="cls-3"><rect class="cls-12" x="131.82" y="30.572" width="24.819" height="11.658"/></g></g><g class="cls-14"><g class="cls-3"><rect class="cls-12" x="131.458" y="19.566" width="21.276" height="11.356"/></g></g><g class="cls-15"><g class="cls-3"><rect class="cls-10" x="267.703" y="189.942" width="29.882" height="29.881"/></g></g><g class="cls-16"><g class="cls-3"><rect class="cls-12" x="273.754" y="196.612" width="23.02" height="18.557"/></g></g><g class="cls-17"><g class="cls-3"><rect class="cls-12" x="267.732" y="200.582" width="23.21" height="16.721"/></g></g><g class="cls-18"><g class="cls-3"><rect class="cls-12" x="272.055" y="190.968" width="20.596" height="14.783"/></g></g><g class="cls-19"><g class="cls-3"><rect class="cls-10" x="339.777" y="30.178" width="29.879" height="29.882"/></g></g><g class="cls-20"><g class="cls-3"><rect class="cls-12" x="345.414" y="32.624" width="21.904" height="20.203"/></g></g><g class="cls-21"><g class="cls-3"><rect class="cls-12" x="347.358" y="39.243" width="20.431" height="20.8"/></g></g><g class="cls-22"><g class="cls-3"><rect class="cls-12" x="339.886" y="34.091" width="17.422" height="18.844"/></g></g><g class="cls-23"><g class="cls-3"><rect class="cls-24" x="167.609" y="216.374" width="34.542" height="18.787"/></g></g><g class="cls-25"><g class="cls-3"><rect class="cls-26" x="45.809" y="184.371" width="107.792" height="125.627"/></g></g><g class="cls-27"><g class="cls-3"><rect class="cls-24" x="69.442" y="43.672" width="55.448" height="55.448"/></g></g><g class="cls-28"><g class="cls-3"><rect class="cls-24" x="59.009" y="71.85" width="50.429" height="49.994"/></g></g><g class="cls-29"><g class="cls-3"><rect class="cls-30" x="45.687" y="98.209" width="87.384" height="106.35"/></g></g><g class="cls-31"><g class="cls-3"><rect class="cls-32" x="91.183" y="136.396" width="58.822" height="86.078"/></g></g><g class="cls-33"><g class="cls-3"><rect class="cls-30" x="94.8" y="105.519" width="90.081" height="129.945"/></g></g><g class="cls-34"><g class="cls-3"><rect class="cls-24" x="54.444" y="181.379" width="29.159" height="40.194"/></g></g><g class="cls-35"><g class="cls-3"><rect class="cls-30" y="115.48" width="74.897" height="86.352"/></g></g><g class="cls-36"><g class="cls-3"><rect class="cls-37" x="22.814" y="30.903" width="103.44" height="103.798"/></g></g><g class="cls-38"><g class="cls-3"><rect class="cls-39" x="160.224" y="68.762" width="90.841" height="117.991"/></g></g><g class="cls-40"><g class="cls-3"><rect class="cls-41" x="158.127" y="65.977" width="65.209" height="123.616"/></g></g><g class="cls-42"><g class="cls-3"><rect class="cls-41" x="201.131" y="142.933" width="54.49" height="10.918" transform="translate(-7.705 314.391) rotate(-69.885)"/></g></g><g class="cls-43"><g class="cls-3"><rect class="cls-41" x="205.671" y="118.479" width="10.918" height="54.49" transform="translate(-24.394 11.995) rotate(-2.516)"/></g></g><g class="cls-44"><g class="cls-3"><rect class="cls-45" x="170.895" y="194.034" width="44.059" height="16.822"/></g></g><g class="cls-46"><g class="cls-3"><rect class="cls-45" x="171.711" y="187.19" width="44.069" height="16.823"/></g></g><g class="cls-47"><g class="cls-3"><rect class="cls-45" x="172.548" y="180.349" width="44.048" height="16.82"/></g></g><g class="cls-48"><g class="cls-3"><rect class="cls-45" x="176.37" y="195.079" width="33.211" height="19.947"/></g></g><g class="cls-49"><g class="cls-3"><rect class="cls-41" x="184.993" y="109.91" width="42.278" height="18.811"/></g></g></svg>